<?xml version="1.0" encoding="UTF-8" standalone="no"?>
<svg
   xmlns:dc="http://purl.org/dc/elements/1.1/"
   xmlns:cc="http://creativecommons.org/ns#"
   xmlns:rdf="http://www.w3.org/1999/02/22-rdf-syntax-ns#"
   xmlns:svg="http://www.w3.org/2000/svg"
   xmlns="http://www.w3.org/2000/svg"
   xmlns:sodipodi="http://sodipodi.sourceforge.net/DTD/sodipodi-0.dtd"
   xmlns:inkscape="http://www.inkscape.org/namespaces/inkscape"
   version="1.1"
   id="svg2"
   xml:space="preserve"
   width="1000"
   height="666.66669"
   viewBox="0 0 1000 666.66669"
   sodipodi:docname="4307456.ai"><metadata
     id="metadata8"><rdf:RDF><cc:Work
         rdf:about=""><dc:format>image/svg+xml</dc:format><dc:type
           rdf:resource="http://purl.org/dc/dcmitype/StillImage" /></cc:Work></rdf:RDF></metadata><defs
     id="defs6"><clipPath
       clipPathUnits="userSpaceOnUse"
       id="clipPath18"><path
         d="M 0,500 H 750 V 0 H 0 Z"
         id="path16" /></clipPath></defs><sodipodi:namedview
     pagecolor="#ffffff"
     bordercolor="#666666"
     borderopacity="1"
     objecttolerance="10"
     gridtolerance="10"
     guidetolerance="10"
     inkscape:pageopacity="0"
     inkscape:pageshadow="2"
     inkscape:window-width="640"
     inkscape:window-height="480"
     id="namedview4" /><g
     id="g10"
     inkscape:groupmode="layer"
     inkscape:label="4307456"
     transform="matrix(1.3333333,0,0,-1.3333333,0,666.66667)"><g
       id="g12"><g
         id="g14"
         clip-path="url(#clipPath18)"><g
           id="g20"
           transform="translate(689.9877,39.5282)"><path
             d="m 0,0 h -621.387 c -25.561,19.618 -38.346,56.085 -36.733,88.12 1.613,32.035 19.826,62.806 47.23,79.795 15.844,9.823 36.315,17.425 41.332,35.287 4.462,15.89 -5.859,31.629 -13.184,46.435 -27.28,55.139 -11.969,127.808 35.285,167.469 47.253,39.661 121.979,42.562 172.207,6.686 23.885,-17.06 41.662,-41.022 59.773,-64.043 18.112,-23.022 37.602,-46.035 63.433,-60.022 25.831,-13.987 59.592,-17.18 83.851,-0.649 16.207,11.045 26.448,29.405 43.238,39.556 21.82,13.193 51.036,9.416 72.626,-4.144 21.59,-13.56 36.637,-35.343 48.208,-57.956 C 37.795,194.614 38.909,83.369 0,0"
             style="fill:#ffefd1;fill-opacity:1;fill-rule:nonzero;stroke:none"
             id="path22" /></g><g
           id="g24"
           transform="translate(445.2461,379.1338)"><path
             d="M 0,0 C 12.108,-7.131 25.691,-12.413 39.768,-12.654 53.844,-12.896 68.449,-7.53 77.143,3.464 87.8,16.939 87.765,36.615 80.616,52.208 73.466,67.8 60.294,79.886 46.271,89.871 34.52,98.238 21.719,105.537 7.666,108.924 -6.386,112.31 -21.875,111.469 -34.431,104.348 -85.309,75.492 -31.269,18.415 0,0"
             style="fill:#ffefd1;fill-opacity:1;fill-rule:nonzero;stroke:none"
             id="path26" /></g><g
           id="g28"
           transform="translate(581.6439,402.6642)"><path
             d="m 0,0 c 5.799,-0.3 11.874,0.957 16.406,4.562 6.939,5.52 8.85,15.935 5.438,24.086 C 15.606,43.547 -13.159,54.159 -24.861,39.481 -38.397,22.504 -17.215,0.891 0,0"
             style="fill:#ffefd1;fill-opacity:1;fill-rule:nonzero;stroke:none"
             id="path30" /></g><g
           id="g32"
           transform="translate(159.8451,214.7137)"><path
             d="m 0,0 -23.142,4.568 -35.57,-14.456 c -34.444,-46.451 -52.355,-165.297 -52.355,-165.297 h 242.201 l -13.433,86.516 109.618,-32.453 c 14.913,-4.415 30.983,-2.762 44.667,4.596 l 98.906,53.182 -54.115,42.06 -77.229,-31.844 -96.674,38.398 c -19.292,7.662 -40.612,8.689 -60.56,2.918 l -9.438,-2.73 z"
             style="fill:#7feffb;fill-opacity:1;fill-rule:nonzero;stroke:none"
             id="path34" /></g><g
           id="g36"
           transform="translate(530.7373,151.3697)"><path
             d="m 0,0 -54.116,42.06 -70.513,-29.075 c 2.244,-3.957 4.734,-7.776 7.449,-11.431 8.729,-11.752 9.051,-27.67 1.365,-40.119 -4.158,-6.735 -7.401,-14.029 -9.562,-21.606 9.172,0.225 18.252,2.57 26.471,6.989 z"
             style="fill:#13a7cf;fill-opacity:1;fill-rule:nonzero;stroke:none"
             id="path38" /></g><g
           id="g40"
           transform="translate(277.546,126.0451)"><path
             d="m 0,0 -6.412,41.298 8.871,-11.45 c 4.727,-6.1 8.536,-12.85 11.308,-20.037 l 6.047,-15.677 z"
             style="fill:#13a7cf;fill-opacity:1;fill-rule:nonzero;stroke:none"
             id="path42" /></g><g
           id="g44"
           transform="translate(94.844,195.2706)"><path
             d="M 0,0 C -16.757,-55.216 9.837,-78.988 67.368,-155.738 H 133.34 Z"
             style="fill:#13a7cf;fill-opacity:1;fill-rule:nonzero;stroke:none"
             id="path46" /></g><g
           id="g48"
           transform="translate(271.134,167.3428)"><path
             d="M 0,0 10.44,-67.237"
             style="fill:none;stroke:#47284f;stroke-width:0.459;stroke-linecap:round;stroke-linejoin:round;stroke-miterlimit:10;stroke-dasharray:none;stroke-opacity:1"
             id="path50" /></g><g
           id="g52"
           transform="translate(471.2314,169.5276)"><path
             d="m 0,0 c -14.111,-1.742 -29.04,1.133 -40.595,9.362 -11.554,8.228 -19.268,22.082 -18.595,36.184 0.674,14.101 10.468,27.733 24.144,31.601 6.939,21.616 22.063,41.54 43.41,49.637 21.346,8.098 46.356,6.015 66.046,-5.499 36.891,-21.574 49.56,-69.218 82.181,-96.748 9.405,-7.937 20.241,-13.99 30.435,-20.901 10.193,-6.911 20.002,-14.965 26.104,-25.618 6.102,-10.652 7.921,-24.373 2.029,-35.142 -6.391,-11.682 -20.608,-17.564 -33.995,-17.252 -13.386,0.313 -26.089,5.83 -37.808,12.263 -35.629,19.558 -65.884,48.66 -86.7,83.397 C 39.057,14.04 18.906,2.334 0,0"
             style="fill:#a13e4b;fill-opacity:1;fill-rule:nonzero;stroke:none"
             id="path54" /></g><g
           id="g56"
           transform="translate(560.6602,241.0211)"><path
             d="m 0,0 c -6.474,-0.834 -13.948,-1.401 -21.891,-1.204 -7.941,0.181 -16.337,1.119 -24.563,2.88 -8.222,1.782 -16.255,4.383 -23.556,7.486 -7.312,3.089 -13.876,6.68 -19.42,10.103 4.932,-4.237 11.201,-8.554 18.45,-12.173 7.235,-3.634 15.429,-6.562 23.876,-8.391 8.45,-1.811 17.129,-2.517 25.231,-2.188 C -13.765,-3.176 -6.257,-1.826 0,0"
             style="fill:#be4e5a;fill-opacity:1;fill-rule:nonzero;stroke:none"
             id="path58" /></g><g
           id="g60"
           transform="translate(551.4898,265.6301)"><path
             d="m 0,0 c -8.244,-3.593 -19.402,-7.238 -30.966,-8.731 -11.551,-1.586 -23.282,-0.99 -32.189,0.319 4.306,-1.307 9.447,-2.362 15.017,-2.827 5.567,-0.473 11.552,-0.356 17.454,0.425 5.9,0.791 11.704,2.244 16.948,4.158 C -8.486,-4.751 -3.806,-2.387 0,0"
             style="fill:#be4e5a;fill-opacity:1;fill-rule:nonzero;stroke:none"
             id="path62" /></g><g
           id="g64"
           transform="translate(544.8765,282.852)"><path
             d="m 0,0 c -3.208,-2.327 -7.04,-4.782 -11.359,-6.935 -4.312,-2.161 -9.099,-4.019 -14.036,-5.355 -4.941,-1.325 -10.018,-2.124 -14.839,-2.424 -4.822,-0.309 -9.379,-0.113 -13.331,0.284 3.837,-1.005 8.435,-1.677 13.375,-1.672 4.937,-0.007 10.201,0.661 15.283,2.024 5.08,1.374 9.961,3.439 14.217,5.923 C -6.424,-5.681 -2.799,-2.793 0,0"
             style="fill:#be4e5a;fill-opacity:1;fill-rule:nonzero;stroke:none"
             id="path66" /></g><g
           id="g68"
           transform="translate(443.4494,183.9221)"><path
             d="m 0,0 c 4.787,2.467 9.967,6.145 14.602,11.011 4.643,4.845 8.723,10.859 11.536,17.446 2.811,6.588 4.326,13.681 4.603,20.363 0.298,6.69 -0.642,12.943 -2.186,18.074 0.717,-5.311 0.993,-11.471 0.289,-17.935 C 28.157,42.502 26.497,35.761 23.802,29.44 21.101,23.121 17.377,17.248 13.181,12.268 8.993,7.27 4.343,3.182 0,0"
             style="fill:#be4e5a;fill-opacity:1;fill-rule:nonzero;stroke:none"
             id="path70" /></g><g
           id="g72"
           transform="translate(440.2416,202.5248)"><path
             d="m 0,0 c 2.967,1.129 6.247,2.928 9.314,5.43 3.072,2.49 5.92,5.666 8.171,9.224 2.242,3.564 3.876,7.494 4.791,11.325 0.929,3.832 1.127,7.546 0.854,10.69 C 22.904,33.517 22.334,29.933 21.194,26.272 20.066,22.61 18.381,18.882 16.218,15.441 14.044,12.008 11.402,8.875 8.577,6.269 5.756,3.652 2.757,1.579 0,0"
             style="fill:#be4e5a;fill-opacity:1;fill-rule:nonzero;stroke:none"
             id="path74" /></g><g
           id="g76"
           transform="translate(535.622,80.7841)"><path
             d="M 0,0 -4.885,-41.256 H 168.794 C 114.52,105.07 89.012,109.961 36.908,109.961 Z"
             style="fill:#3e4e6c;fill-opacity:1;fill-rule:nonzero;stroke:none"
             id="path78" /></g><g
           id="g80"
           transform="translate(610.114,143.8262)"><path
             d="m 0,0 c -13.026,-55.768 -65.944,-104.298 -65.944,-104.298 h -13.433 l 4.885,41.256 z"
             style="fill:#47284f;fill-opacity:1;fill-rule:nonzero;stroke:none"
             id="path82" /></g><g
           id="g84"
           transform="translate(462.6111,177.4934)"><path
             d="m 0,0 c 11.861,-19.707 30.891,-35.057 52.749,-42.548 5.808,-1.99 11.879,-3.452 18.023,-3.366 6.144,0.086 12.396,1.824 17.166,5.669 7.865,6.341 10.476,17.446 9.104,27.411 C 95.669,-2.868 90.941,6.288 86.286,15.221 76.354,18.268 65.932,25.494 62.801,35.334 53.56,34.695 44.029,37.396 36.359,42.553 24.706,14.827 0,0 0,0"
             style="fill:#ffc09c;fill-opacity:1;fill-rule:nonzero;stroke:none"
             id="path86" /></g><g
           id="g88"
           transform="translate(541.3278,211.1486)"><path
             d="m 0,0 c 0.894,3.463 2.654,6.801 5.465,9.035 2.811,2.234 6.766,3.203 10.138,1.95 3.916,-1.455 6.266,-5.433 7.672,-9.341 2.047,-5.695 2.7,-12.216 0.064,-17.667 C 20.66,-21.563 11.746,-27.044 6.011,-22.496 -0.127,-17.628 -1.832,-7.095 0,0"
             style="fill:#ffc09c;fill-opacity:1;fill-rule:nonzero;stroke:none"
             id="path90" /></g><g
           id="g92"
           transform="translate(552.3002,193.4293)"><path
             d="m 0,0 c -0.507,0 -0.728,0.142 -0.895,0.275 -3.734,2.96 -5.069,10.803 -3.769,15.839 0.635,2.457 1.781,4.444 3.225,5.591 0.844,0.671 1.957,1.087 2.908,1.087 0.326,0 0.622,-0.048 0.876,-0.143 C 3.71,22.142 5.103,20.152 6.168,17.189 7.198,14.326 8.61,8.869 6.494,4.494 5.438,2.309 2.101,0 0,0"
             style="fill:#ffa788;fill-opacity:1;fill-rule:nonzero;stroke:none"
             id="path94" /></g><g
           id="g96"
           transform="translate(498.9706,220.0462)"><path
             d="m 0,0 c -11.653,-27.726 -36.359,-42.553 -36.359,-42.553 1.444,-2.4 2.999,-4.734 4.649,-6.998 C -21.563,-42.172 -2.033,-22.382 0,0"
             style="fill:#ffa788;fill-opacity:1;fill-rule:nonzero;stroke:none"
             id="path98" /></g><g
           id="g100"
           transform="translate(507.4585,182)"><path
             d="M 0,0 C 5.364,2.743 8.185,8.185 7.798,13.271 1.035,7.732 -6.949,3.638 -15.414,1.369 -11.461,-1.888 -5.358,-2.755 0,0"
             style="fill:#a13e4b;fill-opacity:1;fill-rule:nonzero;stroke:none"
             id="path102" /></g><g
           id="g104"
           transform="translate(503.9103,174.1878)"><path
             d="m 0,0 c 2.182,-1.574 6.238,-1.973 9.547,-0.212 3.349,1.686 5.341,5.216 5.29,7.893 C 13.071,5.663 10.842,3.622 8.237,2.283 5.64,0.929 2.678,0.283 0,0"
             style="fill:#47284f;fill-opacity:1;fill-rule:nonzero;stroke:none"
             id="path106" /></g><g
           id="g108"
           transform="translate(481.1535,166.0352)"><path
             d="M 0,0 C 2.293,2.364 1.79,6.951 -0.633,11.196 -2.635,6.476 -6.043,2.948 -10.541,0.939 -6.596,-1.731 -2.284,-2.374 0,0"
             style="fill:#a13e4b;fill-opacity:1;fill-rule:nonzero;stroke:none"
             id="path110" /></g><g
           id="g112"
           transform="translate(481.0169,158.2607)"><path
             d="M 0,0 C 2.136,-1.232 5.105,-1.331 6.7,0.398 8.352,2.064 8.333,5.246 7.236,7.564 6.812,5.707 6.077,3.801 4.803,2.481 3.54,1.149 1.743,0.408 0,0"
             style="fill:#47284f;fill-opacity:1;fill-rule:nonzero;stroke:none"
             id="path114" /></g><g
           id="g116"
           transform="translate(484.2589,174.8312)"><path
             d="m 0,0 c 6.511,-7.433 11.818,-15.903 15.654,-24.987 0.725,-1.716 1.65,-3.68 3.474,-4.107 1.743,-0.408 3.429,0.824 4.649,2.125 1.221,1.3 2.398,2.828 4.127,3.289"
             style="fill:none;stroke:#47284f;stroke-width:0.459;stroke-linecap:round;stroke-linejoin:miter;stroke-miterlimit:10;stroke-dasharray:none;stroke-opacity:1"
             id="path118" /></g><g
           id="g120"
           transform="translate(470.6124,133.8581)"><path
             d="m 0,0 -46.541,-30.287 c -14.625,-9.518 -19.971,-28.268 -12.539,-43.984 7.948,-16.806 27.766,-24.483 45.079,-17.462 l 52.145,21.147 z"
             style="fill:#ffc09c;fill-opacity:1;fill-rule:nonzero;stroke:none"
             id="path122" /></g><g
           id="g124"
           transform="translate(470.6124,133.8579)"><path
             d="M 0,0 -5.344,-3.478 C -4.091,-24.786 1.981,-44.95 7.795,-57.803 10.612,-64.031 8.021,-71.349 1.926,-74.51 l -21.408,-11.106 c -11.474,-5.953 -24.891,-4.172 -34.35,3.357 9.625,-11.05 25.57,-15.257 39.831,-9.474 l 52.145,21.147 z"
             style="fill:#ffa788;fill-opacity:1;fill-rule:nonzero;stroke:none"
             id="path126" /></g><g
           id="g128"
           transform="translate(464.3866,133.7234)"><path
             d="m 0,0 86.515,51.401 c 18.5,10.991 42.445,5.462 54.16,-12.506 v 0 c 11.011,-16.889 7.573,-39.283 -8.007,-52.147 L 48.875,-82.44 C 12.235,-52.535 0,0 0,0"
             style="fill:#3e4e6c;fill-opacity:1;fill-rule:nonzero;stroke:none"
             id="path130" /></g><g
           id="g132"
           transform="translate(605.0612,172.6184)"><path
             d="m 0,0 v 0 c -0.275,0.422 -0.564,0.831 -0.852,1.239 0.488,-2.505 0.713,-5.061 0.656,-7.597 -0.234,-10.396 -4.659,-20.375 -10.864,-28.753 -6.205,-8.378 -14.135,-15.329 -22.208,-21.956 -22.818,-18.732 -47.336,-35.414 -73.131,-49.846 4.369,-5.134 9.214,-10.026 14.599,-14.422 l 83.793,69.187 C 7.573,-39.283 11.012,-16.889 0,0"
             style="fill:#304361;fill-opacity:1;fill-rule:nonzero;stroke:none"
             id="path134" /></g><g
           id="g136"
           transform="translate(221.4444,426.008)"><path
             d="m 0,0 c -10.464,10.212 -26.507,13.766 -40.847,10.68 -11.448,-2.463 -22.081,-8.995 -28.87,-18.472 -6.788,-9.477 -9.504,-21.882 -6.647,-33.16 2.857,-11.277 11.442,-21.114 22.506,-24.933 10.751,-3.711 22.845,-1.696 33.148,3.104 9.892,4.609 25.817,13.361 29.562,24.41 C 13.323,-25.178 10.04,-9.799 0,0"
             style="fill:#703e59;fill-opacity:1;fill-rule:nonzero;stroke:none"
             id="path138" /></g><g
           id="g140"
           transform="translate(193.2681,387.2616)"><path
             d="m 0,0 c -6.785,-3.911 -12.729,-9.559 -15.975,-16.65 -1.727,-3.775 -2.606,-7.977 -2.497,-12.117 8.744,-1.054 17.887,0.981 25.938,4.733 9.893,4.609 25.817,13.36 29.562,24.41 0.517,1.525 0.919,3.081 1.23,4.653 C 25.492,8.284 11.42,6.584 0,0"
             style="fill:#4e2447;fill-opacity:1;fill-rule:nonzero;stroke:none"
             id="path142" /></g><g
           id="g144"
           transform="translate(173.6004,372.6478)"><path
             d="m 0,0 c -3.072,2.264 -6.277,5.273 -8.978,9.005 -2.707,3.716 -4.901,8.135 -6.128,12.821 -1.219,4.688 -1.462,9.609 -0.913,14.163 0.537,4.564 1.867,8.74 3.445,12.199 -2.103,-3.168 -3.921,-7.31 -4.778,-11.999 -0.874,-4.675 -0.782,-9.873 0.505,-14.81 1.29,-4.937 3.751,-9.526 6.801,-13.192 C -7.003,4.501 -3.388,1.756 0,0"
             style="fill:#96597c;fill-opacity:1;fill-rule:nonzero;stroke:none"
             id="path146" /></g><g
           id="g148"
           transform="translate(176.1291,382.606)"><path
             d="m 0,0 c -3.205,4.058 -6.756,9.799 -8.99,16.094 -2.29,6.274 -3.208,12.95 -3.319,18.105 -0.708,-5.105 -0.186,-12.076 2.169,-18.513 C -7.853,9.224 -3.806,3.504 0,0"
             style="fill:#96597c;fill-opacity:1;fill-rule:nonzero;stroke:none"
             id="path150" /></g><g
           id="g152"
           transform="translate(189.3779,388.9111)"><path
             d="m 0,0 c -1.258,5.676 -3.826,12.938 -7.413,19.709 -3.555,6.787 -8.098,13.024 -12.077,17.287 3.259,-4.831 7.346,-11.217 10.858,-17.92 C -5.09,12.388 -2.138,5.413 0,0"
             style="fill:#96597c;fill-opacity:1;fill-rule:nonzero;stroke:none"
             id="path154" /></g><g
           id="g156"
           transform="translate(193.5593,402.683)"><path
             d="m 0,0 c -0.65,3.294 -2.218,7.505 -4.592,11.265 -2.346,3.777 -5.456,7.036 -8.144,9.072 2.334,-2.431 5.164,-5.782 7.469,-9.489 C -2.938,7.157 -1.163,3.154 0,0"
             style="fill:#96597c;fill-opacity:1;fill-rule:nonzero;stroke:none"
             id="path158" /></g><g
           id="g160"
           transform="translate(213.4201,398.2296)"><path
             d="m 0,0 c 0.156,3.319 -0.312,7.24 -1.711,11.171 -1.382,3.928 -3.691,7.846 -6.766,11.097 -3.077,3.249 -6.873,5.781 -10.736,7.395 -3.864,1.631 -7.777,2.338 -11.123,2.39 3.299,-0.572 7.005,-1.648 10.629,-3.456 3.624,-1.793 7.152,-4.308 10.082,-7.4 2.926,-3.095 5.235,-6.748 6.812,-10.449 C -1.221,7.044 -0.37,3.305 0,0"
             style="fill:#96597c;fill-opacity:1;fill-rule:nonzero;stroke:none"
             id="path162" /></g><g
           id="g164"
           transform="translate(222.214,400.2252)"><path
             d="m 0,0 c 0.445,3.269 0.304,7.192 -0.787,11.19 -1.073,3.993 -3.092,8.04 -5.943,11.451 -2.853,3.409 -6.489,6.123 -10.245,7.904 -3.757,1.8 -7.616,2.658 -10.935,2.825 3.254,-0.681 6.889,-1.897 10.395,-3.858 3.506,-1.946 6.871,-4.625 9.582,-7.863 2.707,-3.241 4.742,-7.017 6.024,-10.797 C -0.612,7.07 -0.076,3.301 0,0"
             style="fill:#96597c;fill-opacity:1;fill-rule:nonzero;stroke:none"
             id="path166" /></g><g
           id="g168"
           transform="translate(168.5264,365.407)"><path
             d="m 0,0 c -2.658,1.818 -5.493,4.204 -8.02,7.169 -2.531,2.955 -4.745,6.476 -6.284,10.279 -1.535,3.804 -2.387,7.869 -2.615,11.74 -0.239,3.877 0.15,7.547 0.804,10.684 -1.14,-2.995 -1.932,-6.704 -1.941,-10.715 -0.024,-4.003 0.736,-8.291 2.344,-12.27 1.609,-3.979 4.044,-7.598 6.849,-10.476 C -6.064,3.519 -2.91,1.382 0,0"
             style="fill:#96597c;fill-opacity:1;fill-rule:nonzero;stroke:none"
             id="path170" /></g><g
           id="g172"
           transform="translate(196.9634,276.4567)"><path
             d="m 0,0 c -8.193,-1.076 -16.399,0.087 -21.747,6.342 -5.347,6.256 -8.075,14.351 -9.38,22.453 -5.373,33.375 14.204,69.151 45.331,82.84 31.128,13.688 70.971,4.043 92.258,-22.334 8.989,0.038 17.166,-8.396 19.825,-16.921 2.66,-8.525 0.538,-18.019 -4.098,-25.666 C 117.553,39.068 110.625,33.048 103.306,27.867 74.975,7.81 34.495,4.531 0,0"
             style="fill:#703e59;fill-opacity:1;fill-rule:nonzero;stroke:none"
             id="path174" /></g><g
           id="g176"
           transform="translate(221.0077,346.1322)"><path
             d="m 0,0 c 4.29,-1.063 9.425,-1.739 14.929,-1.646 5.501,0.079 11.354,0.922 16.988,2.545 5.631,1.634 11.025,4.042 15.708,6.907 4.694,2.855 8.661,6.162 11.705,9.346 C 55.818,14.477 51.611,11.647 46.851,9.15 42.099,6.643 36.807,4.47 31.336,2.88 25.86,1.305 20.22,0.318 14.855,-0.1 9.489,-0.53 4.409,-0.385 0,0"
             style="fill:#96597c;fill-opacity:1;fill-rule:nonzero;stroke:none"
             id="path178" /></g><g
           id="g180"
           transform="translate(205.9757,363.1161)"><path
             d="m 0,0 c 4.258,-1.886 9.416,-3.606 15.093,-4.745 5.671,-1.149 11.85,-1.715 18.018,-1.565 6.167,0.163 12.308,1.042 17.913,2.477 5.611,1.425 10.674,3.404 14.829,5.504 C 61.415,0.24 56.254,-1.191 50.666,-2.24 45.082,-3.298 39.078,-3.975 33.055,-4.134 27.031,-4.28 21,-3.909 15.368,-3.136 9.734,-2.372 4.506,-1.204 0,0"
             style="fill:#96597c;fill-opacity:1;fill-rule:nonzero;stroke:none"
             id="path182" /></g><g
           id="g184"
           transform="translate(229.1521,374.2166)"><path
             d="M 0,0 C 4.781,-2.329 11.559,-4.444 18.549,-5.222 25.533,-6.047 32.618,-5.523 37.808,-4.338 32.492,-4.701 25.557,-4.796 18.692,-3.987 11.823,-3.22 5.092,-1.557 0,0"
             style="fill:#96597c;fill-opacity:1;fill-rule:nonzero;stroke:none"
             id="path186" /></g><g
           id="g188"
           transform="translate(203.6519,291.64)"><path
             d="m 0,0 -28.798,-65.374 32.271,-50.455 4.56,-30.153 33.936,87.942 z"
             style="fill:#ffcaad;fill-opacity:1;fill-rule:nonzero;stroke:none"
             id="path190" /></g><g
           id="g192"
           transform="translate(201.5092,285.5809)"><path
             d="m 0,0 1.709,-23.32 c 0.55,-7.504 3.483,-14.641 8.377,-20.385 l 25.617,-30.067 8.409,21.791 -41.969,58.04 z"
             style="fill:#47284f;fill-opacity:1;fill-rule:nonzero;stroke:none"
             id="path194" /></g><g
           id="g196"
           transform="translate(296.2383,350.6284)"><path
             d="M 0,0 C 12.184,-15.071 14.965,-37.059 6.912,-54.652 L 5.96,-86.969 c -0.104,-3.515 -3.825,-5.756 -7.013,-4.222 l -1.764,0.849 -14.134,-21.597 c -7.429,-11.352 -23.17,-13.732 -33.666,-5.09 l -31.617,26.031 c -4.737,3.901 -8.118,9.183 -9.662,15.097 l -4.545,17.41 c 27.273,0.808 35.822,30.309 35.822,30.309 C -24.391,-26.162 -5.731,-11.421 0,0"
             style="fill:#ffcaad;fill-opacity:1;fill-rule:nonzero;stroke:none"
             id="path198" /></g><g
           id="g200"
           transform="translate(287.1324,263.3107)"><path
             d="m 0,0 8.053,-3.873 c 3.188,-1.534 6.909,0.706 7.013,4.222 l 0.501,17.018"
             style="fill:none;stroke:#47284f;stroke-width:0.459;stroke-linecap:round;stroke-linejoin:miter;stroke-miterlimit:10;stroke-dasharray:none;stroke-opacity:1"
             id="path202" /></g><g
           id="g204"
           transform="translate(205.0583,316.3842)"><path
             d="M 0,0 C -3.639,3.663 -8.932,5.819 -14.073,5.172 -19.215,4.526 -23.99,0.854 -25.391,-4.1 c -1.223,-4.327 0.093,-8.916 1.401,-13.218 1.756,-5.772 3.907,-12.066 9.126,-15.149 5.29,-3.125 13.445,-1.057 17.856,2.953 4.399,4 3.992,12.728 2.949,17.919 C 5.076,-7.293 3.124,-3.144 0,0"
             style="fill:#ffcaad;fill-opacity:1;fill-rule:nonzero;stroke:none"
             id="path206" /></g><g
           id="g208"
           transform="translate(196.2518,288.8688)"><path
             d="m 0,0 c -1.114,0 -2.057,0.209 -2.726,0.605 -3.081,1.82 -4.701,6.46 -6.223,11.461 -1.197,3.938 -2.058,7.146 -1.364,9.602 0.646,2.287 3.167,4.266 5.864,4.605 0.331,0.042 0.673,0.062 1.015,0.062 2.671,0 5.513,-1.256 7.604,-3.36 C 6.206,20.926 7.694,17.971 8.36,14.656 9.516,8.905 8.761,4.009 7.4,2.771 5.605,1.139 2.562,0 0,0"
             style="fill:#ffa78e;fill-opacity:1;fill-rule:nonzero;stroke:none"
             id="path210" /></g><g
           id="g212"
           transform="translate(195.2645,283.9352)"><path
             d="m 0,0 c 3.03,-4.628 -1.946,-9.567 -6.607,-6.557 -0.288,0.186 -0.542,0.437 -0.73,0.724 -3.03,4.627 1.946,9.567 6.607,6.558 C -0.441,0.539 -0.188,0.287 0,0"
             style="fill:#ffffff;fill-opacity:1;fill-rule:nonzero;stroke:none"
             id="path214" /></g><g
           id="g216"
           transform="translate(256.0566,315.7482)"><path
             d="m 0,0 c 4.256,-3.054 9.451,-4.651 14.677,-5.159 5.226,-0.507 10.505,0.031 15.675,0.941 l 3.824,7.615 C 18.843,-1.991 0,0 0,0"
             style="fill:#703e59;fill-opacity:1;fill-rule:nonzero;stroke:none"
             id="path218" /></g><g
           id="g220"
           transform="translate(287.7734,301.1793)"><path
             d="m 0,0 -8.165,3.266 c -2.217,0.908 -4.964,-0.642 -6.136,-3.462 -1.171,-2.82 -0.324,-5.842 1.893,-6.75 2.217,-0.907 4.964,0.642 6.135,3.462 0.541,1.302 0.634,2.638 0.379,3.798 z"
             style="fill:#4e2447;fill-opacity:1;fill-rule:nonzero;stroke:none"
             id="path222" /></g><g
           id="g224"
           transform="translate(282.3006,253.4216)"><path
             d="m 0,0 c -13.238,3.039 -26.56,6.105 -39.032,11.457 2.062,-3.797 3.982,-8.2 6.719,-11.55 2.738,-3.35 6.204,-6.236 10.317,-7.627 3.725,-1.259 7.884,-1.216 11.582,0.121 C -6.716,-6.262 -2.037,-3.343 0,0"
             style="fill:#ffffff;fill-opacity:1;fill-rule:nonzero;stroke:none"
             id="path226" /></g><g
           id="g228"
           transform="translate(170.1669,233.5936)"><path
             d="M 0,0 H 7.914 L 4.687,-7.327 Z"
             style="fill:#13a7cf;fill-opacity:1;fill-rule:nonzero;stroke:none"
             id="path230" /></g><g
           id="g232"
           transform="translate(207.1247,175.8109)"><path
             d="M 0,0 -36.958,57.783 -48.44,41.558 -17.097,-30.153 Z"
             style="fill:#7feffb;fill-opacity:1;fill-rule:nonzero;stroke:none"
             id="path234" /></g><g
           id="g236"
           transform="translate(211.6845,145.6576)"><path
             d="m 0,0 14.979,30.153 18.019,19.46 -9.117,12.272 z"
             style="fill:#7feffb;fill-opacity:1;fill-rule:nonzero;stroke:none"
             id="path238" /></g><g
           id="g240"
           transform="translate(244.6828,195.2706)"><path
             d="M 0,0 -2.958,-38.108 -18.019,-19.46 Z"
             style="fill:#13a7cf;fill-opacity:1;fill-rule:nonzero;stroke:none"
             id="path242" /></g><g
           id="g244"
           transform="translate(158.6846,217.369)"><path
             d="M 0,0 31.344,-71.711 48.44,-41.558 18.221,5.689"
             style="fill:none;stroke:#47284f;stroke-width:0.459;stroke-linecap:round;stroke-linejoin:round;stroke-miterlimit:10;stroke-dasharray:none;stroke-opacity:1"
             id="path246" /></g><g
           id="g248"
           transform="translate(222.4569,167.3428)"><path
             d="m 0,0 4.207,8.468 18.019,19.46 -5.959,8.02"
             style="fill:none;stroke:#47284f;stroke-width:0.459;stroke-linecap:round;stroke-linejoin:round;stroke-miterlimit:10;stroke-dasharray:none;stroke-opacity:1"
             id="path250" /></g><g
           id="g252"
           transform="translate(211.6845,145.6576)"><path
             d="M 0,0 6.904,13.897"
             style="fill:none;stroke:#47284f;stroke-width:0.459;stroke-linecap:round;stroke-linejoin:round;stroke-miterlimit:10;stroke-dasharray:none;stroke-opacity:1"
             id="path254" /></g><g
           id="g256"
           transform="translate(226.6635,175.8109)"><path
             d="M 0,0 18.019,19.46 15.061,-18.649 9.01,-11.156"
             style="fill:none;stroke:#47284f;stroke-width:0.459;stroke-linecap:round;stroke-linejoin:round;stroke-miterlimit:10;stroke-dasharray:none;stroke-opacity:1"
             id="path258" /></g><g
           id="g260"
           transform="translate(207.1247,175.8109)"><path
             d="M 0,0 2.82,-18.649"
             style="fill:none;stroke:#47284f;stroke-width:0.459;stroke-linecap:round;stroke-linejoin:round;stroke-miterlimit:10;stroke-dasharray:none;stroke-opacity:1"
             id="path262" /></g><g
           id="g264"
           transform="translate(328.3931,138.0922)"><path
             d="M 0,0 18.318,11.517 30.53,62.436 c 9.708,22.138 23.6,35.035 30.046,40.167 2.022,1.61 4.84,1.774 7.024,0.389 3.137,-1.989 3.722,-6.266 1.276,-9.051 C 60.1,83.951 53.04,70.244 51.493,65.467 59.34,77.239 69.279,90.346 78.109,97.29 c 2.348,1.846 5.677,1.789 7.962,-0.134 l 0.118,-0.1 c 2.897,-2.438 3.093,-6.772 0.45,-9.444 C 75.039,75.888 67.784,61.036 63.501,53.95 c 8.606,11.106 19.132,20.406 24.598,24.93 2.109,1.746 5.16,1.752 7.278,0.018 2.472,-2.025 2.783,-5.67 0.68,-8.071 -10.156,-11.593 -23.6,-28.395 -23.6,-28.395 7.211,6.739 15.013,14.062 19.103,17.905 1.624,1.527 4.154,1.532 5.795,0.023 1.526,-1.402 1.816,-3.696 0.67,-5.419 C 87.864,39.674 69.607,25.459 69.607,25.459 L 61.792,7.077 C 58.374,-0.963 51.425,-6.999 42.945,-9.295 L 22.999,-27.682 Z"
             style="fill:#ffcaad;fill-opacity:1;fill-rule:nonzero;stroke:none"
             id="path266" /></g><g
           id="g268"
           transform="translate(351.3919,110.4102)"><path
             d="m 0,0 19.946,18.387 c 0,0 -2.239,17.639 -23.559,24.393 L -4.681,39.199 -22.999,27.682 Z"
             style="fill:#ffa78e;fill-opacity:1;fill-rule:nonzero;stroke:none"
             id="path270" /></g><g
           id="g272"
           transform="translate(358.9226,200.5283)"><path
             d="m 0,0 c 9.709,22.138 23.601,35.035 30.047,40.167 2.021,1.61 4.84,1.774 7.024,0.389 3.136,-1.989 3.721,-6.266 1.275,-9.051 C 29.57,21.515 22.51,7.808 20.963,3.031 28.811,14.803 38.749,27.91 47.58,34.854 c 2.347,1.846 5.677,1.789 7.961,-0.134 l 0.119,-0.1 c 2.896,-2.438 3.093,-6.772 0.449,-9.444 C 44.51,13.452 37.254,-1.4 32.972,-8.486 41.577,2.62 52.103,11.92 57.57,16.444 c 2.108,1.746 5.16,1.752 7.277,0.018 2.472,-2.025 2.784,-5.67 0.681,-8.071 -10.157,-11.593 -23.601,-28.395 -23.601,-28.395 7.212,6.739 15.013,14.062 19.103,17.905 1.625,1.527 4.155,1.532 5.796,0.023 1.525,-1.402 1.816,-3.697 0.669,-5.419 C 57.334,-22.762 39.078,-36.977 39.078,-36.977 l -7.815,-18.382 c -3.419,-8.04 -10.367,-14.076 -18.848,-16.372 l -6.364,-5.867"
             style="fill:none;stroke:#47284f;stroke-width:0.459;stroke-linecap:round;stroke-linejoin:miter;stroke-miterlimit:10;stroke-dasharray:none;stroke-opacity:1"
             id="path274" /></g><g
           id="g276"
           transform="translate(387.4184,238.0188)"><path
             d="M 0,0 C 2.115,-2.064 4.662,-3.688 7.432,-4.739"
             style="fill:none;stroke:#47284f;stroke-width:0.459;stroke-linecap:round;stroke-linejoin:miter;stroke-miterlimit:10;stroke-dasharray:none;stroke-opacity:1"
             id="path278" /></g><g
           id="g280"
           transform="translate(387.8083,237.8358)"><path
             d="M 0,0 C 0.817,0.976 1.744,1.952 2.965,2.324 4.589,2.82 6.515,1.996 7.268,0.484 8.022,-1.028 7.512,-3.047 6.13,-4.028"
             style="fill:none;stroke:#47284f;stroke-width:0.459;stroke-linecap:round;stroke-linejoin:miter;stroke-miterlimit:10;stroke-dasharray:none;stroke-opacity:1"
             id="path282" /></g><g
           id="g284"
           transform="translate(405.6249,231.5226)"><path
             d="M 0,0 C 2.115,-2.064 4.662,-3.688 7.432,-4.739"
             style="fill:none;stroke:#47284f;stroke-width:0.459;stroke-linecap:round;stroke-linejoin:miter;stroke-miterlimit:10;stroke-dasharray:none;stroke-opacity:1"
             id="path286" /></g><g
           id="g288"
           transform="translate(406.0147,231.3396)"><path
             d="M 0,0 C 0.817,0.976 1.744,1.952 2.966,2.324 4.59,2.82 6.515,1.996 7.269,0.484 8.022,-1.028 7.512,-3.047 6.13,-4.028"
             style="fill:none;stroke:#47284f;stroke-width:0.459;stroke-linecap:round;stroke-linejoin:miter;stroke-miterlimit:10;stroke-dasharray:none;stroke-opacity:1"
             id="path290" /></g><g
           id="g292"
           transform="translate(415.1309,214.0862)"><path
             d="M 0,0 C 1.979,-2.192 4.418,-3.973 7.115,-5.196"
             style="fill:none;stroke:#47284f;stroke-width:0.459;stroke-linecap:round;stroke-linejoin:miter;stroke-miterlimit:10;stroke-dasharray:none;stroke-opacity:1"
             id="path294" /></g><g
           id="g296"
           transform="translate(415.922,213.7554)"><path
             d="M 0,0 C 0.817,0.976 1.744,1.952 2.966,2.324 4.59,2.82 6.515,1.996 7.269,0.484 8.022,-1.028 7.314,-3.702 5.932,-4.683"
             style="fill:none;stroke:#47284f;stroke-width:0.459;stroke-linecap:round;stroke-linejoin:miter;stroke-miterlimit:10;stroke-dasharray:none;stroke-opacity:1"
             id="path298" /></g><g
           id="g300"
           transform="translate(419.2692,196.1684)"><path
             d="M 0,0 C 1.409,-1.56 3.144,-2.828 5.064,-3.698"
             style="fill:none;stroke:#47284f;stroke-width:0.459;stroke-linecap:round;stroke-linejoin:miter;stroke-miterlimit:10;stroke-dasharray:none;stroke-opacity:1"
             id="path302" /></g><g
           id="g304"
           transform="translate(419.8321,195.9329)"><path
             d="M 0,0 C 0.581,0.695 1.241,1.389 2.111,1.654 3.266,2.007 4.637,1.421 5.173,0.345 5.709,-0.732 5.206,-2.634 4.222,-3.333"
             style="fill:none;stroke:#47284f;stroke-width:0.459;stroke-linecap:round;stroke-linejoin:miter;stroke-miterlimit:10;stroke-dasharray:none;stroke-opacity:1"
             id="path306" /></g><g
           id="g308"
           transform="translate(321.7316,133.4815)"><path
             d="m 0,0 18.689,15.903 0.34,-0.161 C 32.098,9.539 41.959,-1.807 46.224,-15.55 l -21.249,-18.7 z"
             style="fill:#7feffb;fill-opacity:1;fill-rule:nonzero;stroke:none"
             id="path310" /></g><g
           id="g312"
           transform="translate(360.46,132.8839)"><path
             d="m 0,0 c 3.269,-4.501 5.816,-9.541 7.496,-14.952 l -21.249,-18.7 -24.975,34.25 18.689,15.903 0.34,-0.162 c 4.215,-2 8.096,-4.535 11.563,-7.514"
             style="fill:none;stroke:#47284f;stroke-width:0.459;stroke-linecap:round;stroke-linejoin:miter;stroke-miterlimit:10;stroke-dasharray:none;stroke-opacity:1"
             id="path314" /></g><g
           id="g316"
           transform="translate(165.7987,201.3628)"><path
             d="m 0,0 c 29.947,-44.839 79.822,-119.501 79.822,-119.501 l 58.345,46.712 c 5.882,4.709 13.127,7.427 20.676,7.758 11.17,-7.197 19.653,-17.835 24.144,-30.28 l 1.367,-3.787 0.201,-1.563 c 1.804,-14.041 -3.9,-27.998 -15.048,-36.822 l -50.781,-40.193 c -27.622,-21.759 -67.805,-17.017 -89.511,10.571 -29.662,37.701 -69.514,88.353 -95.43,121.288 -14.181,18.022 -9.72,44.23 9.628,56.641 l 0.88,0.565 C -36.965,23.411 -12.214,18.287 0,0"
             style="fill:#7feffb;fill-opacity:1;fill-rule:nonzero;stroke:none"
             id="path318" /></g><g
           id="g320"
           transform="translate(245.6209,81.8617)"><path
             d="m 0,0 -23.696,-18.971 0.729,4.6 c 1.578,9.966 8.806,18.134 18.558,20.97 z"
             style="fill:#13a7cf;fill-opacity:1;fill-rule:nonzero;stroke:none"
             id="path322" /></g><g
           id="g324"
           transform="translate(170.1669,194.816)"><path
             d="M 0,0 75.454,-112.954"
             style="fill:none;stroke:#47284f;stroke-width:0.459;stroke-linecap:round;stroke-linejoin:miter;stroke-miterlimit:10;stroke-dasharray:none;stroke-opacity:1"
             id="path326" /></g><g
           id="g328"
           transform="translate(221.9252,62.8908)"><path
             d="M 0,0 68.111,54.53"
             style="fill:none;stroke:#47284f;stroke-width:0.459;stroke-linecap:round;stroke-linejoin:miter;stroke-miterlimit:10;stroke-dasharray:none;stroke-opacity:1"
             id="path330" /></g><g
           id="g332"
           transform="translate(107.3705,145.6576)"><path
             d="M 0,0 76.547,-97.295"
             style="fill:none;stroke:#47284f;stroke-width:0.459;stroke-linecap:round;stroke-linejoin:miter;stroke-miterlimit:10;stroke-dasharray:none;stroke-opacity:1"
             id="path334" /></g><g
           id="g336"
           transform="translate(99.5836,155.5457)"><path
             d="M 0,0 C -5.865,7.454 -8.542,16.308 -8.295,25.008"
             style="fill:none;stroke:#47284f;stroke-width:0.459;stroke-linecap:round;stroke-linejoin:miter;stroke-miterlimit:10;stroke-dasharray:none;stroke-opacity:1"
             id="path338" /></g><g
           id="g340"
           transform="translate(303.9661,128.5735)"><path
             d="m 0,0 c 5.882,4.709 13.127,7.427 20.676,7.758 11.17,-7.197 19.652,-17.835 24.144,-30.28 l 1.367,-3.787 0.201,-1.563 c 1.804,-14.04 -3.9,-27.998 -15.048,-36.821"
             style="fill:none;stroke:#47284f;stroke-width:0.459;stroke-linecap:round;stroke-linejoin:miter;stroke-miterlimit:10;stroke-dasharray:none;stroke-opacity:1"
             id="path342" /></g><g
           id="g344"
           transform="translate(165.1311,153.1406)"><path
             d="M 0,0 C -3.417,-11.352 -3.736,-23.608 -0.912,-35.119"
             style="fill:none;stroke:#47284f;stroke-width:0.459;stroke-linecap:round;stroke-linejoin:miter;stroke-miterlimit:10;stroke-dasharray:none;stroke-opacity:1"
             id="path346" /></g><g
           id="g348"
           transform="translate(306.9865,96.9377)"><path
             d="M 0,0 C -0.978,-11.627 -5.334,-22.954 -12.411,-32.268"
             style="fill:none;stroke:#47284f;stroke-width:0.459;stroke-linecap:round;stroke-linejoin:miter;stroke-miterlimit:10;stroke-dasharray:none;stroke-opacity:1"
             id="path350" /></g><g
           id="g352"
           transform="translate(458.0747,360.2476)"><path
             d="m 0,0 c -0.021,0.137 -0.031,0.279 -0.055,0.414 -0.133,0.78 -0.346,1.561 -0.62,2.329 0.557,1.079 1.065,2.187 1.519,3.318 0.761,0.528 1.461,1.18 2.061,2.012 1.87,2.594 1.894,5.715 0.387,8.032 0.169,1.97 0.157,3.936 -0.079,5.862 -0.616,5.037 -2.983,9.773 -6.61,13.135 1.904,-0.446 3.71,-1.361 5.148,-2.643 C 5.71,28.931 7.159,23.504 6.924,18.38 6.658,12.576 4.501,4.733 0,0 m -11.783,-24.474 c -1.509,-0.884 -3.188,-1.478 -4.9,-1.744 6.886,5.564 11.845,13.542 13.749,22.13 0.567,0.32 1.114,0.681 1.647,1.069 0.235,-8.128 -3.977,-17.632 -10.496,-21.455 m -11.61,-11.574 c -0.092,-3.063 -2.711,-5.153 -4.725,-7.098 -2.162,-2.089 -4.626,-4.515 -4.125,-7.786 0.032,-0.212 0.114,-0.389 0.166,-0.588 -0.837,1.154 -1.187,2.633 -0.742,4.614 0.57,2.539 2.03,4.796 2.574,7.346 0.49,2.29 0.226,4.463 -0.863,6.287 0.752,0.171 1.503,0.359 2.249,0.579 1.261,0.374 2.491,0.824 3.691,1.336 1.104,-1.305 1.831,-2.837 1.775,-4.69 m -26.915,5.085 c 3.17,0.302 6.327,1.01 9.522,0.842 2.223,-0.116 4.694,-0.713 6.541,-2.06 -5.353,-0.764 -10.866,-0.315 -16.063,1.218 m -20.218,14.805 c -1.57,2.487 -2.777,5.084 -3.663,7.738 1.454,-0.807 3.027,-1.401 4.667,-1.781 -0.195,-2.883 0.016,-5.747 0.705,-8.394 -0.604,0.784 -1.177,1.595 -1.709,2.437 m -9.802,21.72 c 0.163,5.113 2.38,9.327 5.66,12.686 -2.913,-6.964 -3.675,-14.796 -2.285,-22.212 -2.185,2.462 -3.497,5.704 -3.375,9.526 m 7.555,25.532 c 2.672,4.417 7.909,5.215 12.595,4.189 -4.977,-3.334 -9.305,-7.559 -12.349,-12.733 -1.528,2.603 -1.955,5.719 -0.246,8.544 m 17.789,5.452 c -0.065,-0.201 -0.146,-0.388 -0.199,-0.598 -0.118,-0.46 0.15,-0.79 0.496,-0.928 -0.014,-0.005 -0.028,-0.01 -0.042,-0.016 -0.521,0.278 -1.049,0.535 -1.583,0.773 0.444,0.256 0.874,0.523 1.328,0.769 m 26.28,6.938 c 5.765,-0.042 11.755,-1.699 15.849,-5.941 0.559,-0.58 1.06,-1.205 1.504,-1.861 -0.328,-0.181 -0.655,-0.366 -0.975,-0.585 -1.505,-1.032 -2.604,-2.51 -3.267,-4.159 -2.806,0.568 -5.748,0.457 -8.47,-0.461 -0.026,-0.009 -0.05,-0.021 -0.076,-0.03 -0.653,0.1 -1.314,0.183 -1.985,0.247 -2.498,0.238 -5.125,0.337 -7.778,0.248 -0.49,0.791 -1.107,1.534 -1.866,2.225 -0.271,2.059 -1.108,4.091 -2.654,5.964 -0.944,1.143 -2.083,2.005 -3.315,2.608 4.331,1.129 8.754,1.776 13.033,1.745 m 18.735,-7.153 c -0.301,0.461 -0.628,0.908 -0.976,1.342 0.843,-0.251 1.645,-0.547 2.396,-0.899 -0.477,-0.111 -0.95,-0.263 -1.42,-0.443 m 9.792,-17.482 c -0.935,0.354 -1.905,0.547 -2.888,0.684 -0.448,1.754 -1.238,3.488 -2.444,5.136 -0.59,0.807 -1.265,1.539 -1.997,2.21 0.271,2.752 -0.327,5.525 -1.626,8.027 0.95,0.317 1.943,0.483 2.948,0.501 5.453,-3.811 7.824,-10.612 7.747,-17.497 -0.516,0.371 -1.092,0.693 -1.74,0.939 M 2.676,12.038 C 2.644,11.376 2.488,10.71 2.193,10.065 2.374,10.72 2.534,11.377 2.676,12.038 M -2.195,6.416 c -0.156,1.887 -0.472,3.768 -0.962,5.625 0.51,1.876 0.667,3.848 0.408,5.824 0.415,-0.081 0.828,-0.171 1.232,-0.289 C -0.262,17.21 0.736,16.527 1.449,15.67 1.244,13.313 0.763,10.984 0.026,8.803 -0.163,8.245 -0.373,7.68 -0.598,7.112 -1.106,6.818 -1.64,6.59 -2.195,6.416 M -1.632,4.86 c 0.023,0.006 0.047,0.011 0.069,0.017 C -1.575,4.851 -1.587,4.825 -1.599,4.798 -1.61,4.819 -1.621,4.839 -1.632,4.86 m -30.263,-29.54 c 0.988,0.703 1.944,1.464 2.864,2.275 0.243,-0.394 0.505,-0.785 0.812,-1.171 1.802,-2.259 4.17,-3.573 6.719,-4.107 -1.111,-0.674 -2.273,-1.262 -3.459,-1.803 -2.043,1.868 -4.69,3.42 -6.936,4.806 m -35.766,18.529 c 0.717,-1.044 1.508,-2.037 2.356,-2.979 -0.961,0.025 -1.908,0.135 -2.834,0.312 0.111,0.892 0.278,1.782 0.478,2.667 M -50.487,30.5 c -4.337,-0.549 -8.712,-1.573 -12.796,-3.139 1.873,1.913 4.016,3.567 6.376,4.854 0.663,0.363 1.352,0.688 2.052,0.994 1.503,-0.801 2.959,-1.705 4.368,-2.709 m 8.08,4.235 c 2.069,-0.467 3.709,-1.306 4.993,-2.425 0.035,-0.53 0.025,-1.065 -0.011,-1.6 -0.022,-0.002 -0.045,-0.006 -0.068,-0.008 -1.316,0.162 -2.637,0.257 -3.95,0.285 -2.256,0.048 -4.601,-0.04 -6.975,-0.26 -1.451,1.156 -2.948,2.259 -4.499,3.229 3.376,1.149 7.013,1.568 10.51,0.779 m 14.092,-6.399 c -0.995,0.409 -2.015,0.764 -3.051,1.076 1.488,-0.014 2.964,-0.085 4.415,-0.226 -0.468,-0.262 -0.921,-0.548 -1.364,-0.85 m 5.185,0.345 c 2.494,-0.444 4.779,-1.202 6.837,-2.243 0.201,-2.524 1.405,-4.928 3.75,-6.41 1.505,-0.951 3.185,-1.318 4.905,-1.544 1.223,-1.975 2.17,-4.187 2.83,-6.597 -0.22,-0.821 -0.522,-1.612 -0.881,-2.38 -2.136,1.494 -4.699,2.17 -7.426,1.438 -0.355,2.053 -1.03,4.09 -2.105,6.083 -2.563,4.752 -6.577,8.199 -11.248,10.482 0.852,0.507 1.748,0.927 2.674,1.267 0.219,-0.036 0.447,-0.057 0.664,-0.096 m 6.864,-0.545 c -1.262,0.579 -2.584,1.071 -3.967,1.463 1.235,0.123 2.508,0.092 3.813,-0.129 0.119,-0.02 0.232,-0.061 0.35,-0.084 -0.092,-0.413 -0.157,-0.83 -0.196,-1.25 m 7.06,-1.969 c -0.14,-0.785 -0.367,-1.557 -0.672,-2.308 -1.447,1.373 -3.067,2.533 -4.829,3.495 -0.024,0.558 0.015,1.119 0.122,1.675 1.986,-0.59 3.819,-1.569 5.379,-2.862 m 0.174,1.95 c -1.535,1.093 -3.26,1.92 -5.076,2.456 0.418,0.938 1.052,1.824 1.929,2.597 0.512,0.451 1.062,0.827 1.637,1.137 1.005,-1.933 1.536,-4.065 1.51,-6.19 M -9.531,21.09 c 0.204,-0.241 0.398,-0.492 0.591,-0.743 -0.071,0.018 -0.143,0.03 -0.214,0.05 -0.24,0.068 -0.464,0.159 -0.69,0.247 0.104,0.149 0.217,0.296 0.313,0.446 m -4.792,4.204 c 1.341,-0.862 2.57,-1.854 3.673,-2.975 -0.193,-0.322 -0.404,-0.638 -0.632,-0.947 -1.47,0.957 -2.512,2.356 -3.041,3.922 m 7.731,-5.373 c -0.637,0.966 -1.331,1.868 -2.083,2.702 0.351,0.743 0.61,1.501 0.81,2.265 1.349,-1.452 2.37,-3.188 2.963,-5.144 -0.565,0.054 -1.129,0.11 -1.69,0.177 m 2.271,-4.36 c -0.378,0.941 -0.8,1.838 -1.265,2.689 0.355,-0.036 0.71,-0.075 1.064,-0.116 0.146,-0.853 0.211,-1.711 0.201,-2.573 M -4.539,8.593 c 0.106,0.196 0.205,0.396 0.303,0.597 0.061,-0.346 0.118,-0.693 0.168,-1.04 -0.153,0.153 -0.311,0.298 -0.471,0.443 M -15.348,-3.754 c 0.421,-0.331 0.862,-0.638 1.346,-0.888 1.616,-0.837 3.255,-1.184 4.866,-1.185 -2.969,-2.797 -6.457,-4.83 -10.322,-5.38 1.57,2.342 2.987,4.848 4.11,7.453 m -10.257,-7.049 c 3.36,3.045 5.907,6.787 7.038,10.849 0.118,-0.004 0.234,-0.002 0.352,-0.003 0.416,-0.991 0.995,-1.92 1.723,-2.73 -1.256,-3.041 -2.975,-5.953 -4.909,-8.663 -1.362,-0.014 -2.765,0.157 -4.204,0.547 m -8.219,-12.64 c -2.002,1.373 -3.988,3.213 -5.06,5.463 3.025,-0.5 6.021,-0.153 8.197,1.803 -0.002,-1.616 0.241,-3.196 0.877,-4.72 -1.146,-0.989 -2.387,-1.918 -3.687,-2.761 -0.107,0.072 -0.224,0.145 -0.327,0.215 m -26.525,13.251 c 1.268,0.291 2.505,0.689 3.67,1.221 0.866,0.396 1.696,0.867 2.496,1.383 1.481,-2.374 3.408,-4.488 5.643,-6.185 1.439,-1.092 3.381,-2.205 5.508,-3.041 -3.529,-0.225 -7.1,0.205 -10.446,1.357 -2.378,0.819 -4.577,2.018 -6.567,3.493 -0.115,0.586 -0.216,1.177 -0.304,1.772 m -1.448,-0.278 c 0.006,-0.032 0.013,-0.064 0.018,-0.096 -0.033,0.028 -0.068,0.055 -0.101,0.084 0.028,0.004 0.056,0.007 0.083,0.012 m 15.63,39.35 c -0.158,0.132 -0.314,0.264 -0.472,0.396 0.721,0.058 1.442,0.097 2.162,0.124 -0.569,-0.159 -1.132,-0.333 -1.69,-0.52 m 14.129,-3.852 c -0.118,1.085 -0.315,2.139 -0.619,3.152 0.101,-0.028 0.205,-0.049 0.306,-0.077 0.873,-0.242 1.735,-0.542 2.587,-0.871 -0.809,-0.673 -1.567,-1.412 -2.274,-2.204 M -14.91,10.286 c -0.671,-0.332 -1.235,-0.741 -1.733,-1.191 -0.748,0.33 -1.495,0.676 -2.238,1.034 -0.605,1.72 -1.495,3.441 -2.745,5.139 -2.556,3.471 -6.194,6.088 -10.24,7.379 1.128,1.459 2.43,2.757 3.872,3.833 6.631,-3.094 12.128,-8.791 13.349,-16.086 -0.089,-0.041 -0.176,-0.064 -0.265,-0.108 m 0.494,-2.117 c -0.242,0.095 -0.483,0.197 -0.724,0.295 0.221,0.186 0.455,0.329 0.689,0.471 0.022,-0.256 0.023,-0.51 0.035,-0.766 m 1.539,-2.224 c 1.144,-0.439 2.382,-0.83 3.664,-1.113 -0.585,-0.488 -1.215,-0.93 -1.893,-1.312 -0.72,-0.406 -1.468,-0.729 -2.228,-0.993 0.231,1.134 0.383,2.274 0.457,3.418 m -4.405,-4.17 c -0.433,1.477 -0.338,3.095 0.542,4.69 0.179,0.326 0.379,0.597 0.579,0.869 0.586,-0.263 1.176,-0.51 1.766,-0.76 -0.042,-1.517 -0.241,-3.022 -0.576,-4.508 -0.764,-0.163 -1.537,-0.258 -2.311,-0.291 m -0.85,5.418 c -0.062,0.39 -0.137,0.781 -0.229,1.173 0.243,-0.117 0.486,-0.23 0.73,-0.345 -0.191,-0.265 -0.352,-0.544 -0.501,-0.828 m -8.985,-2.002 c -0.53,1.602 -1.346,3.168 -2.553,4.692 -0.442,0.557 -0.907,1.066 -1.383,1.549 -0.406,1.461 -0.589,2.996 -0.678,4.558 3.578,-2.338 7.288,-4.538 11.103,-6.496 0.731,-2.436 0.908,-5.011 0.529,-7.563 -2.578,0.407 -5.031,1.52 -7.018,3.26 m -19.55,7.053 c -0.324,0.811 -0.73,1.567 -1.178,2.287 3.364,0.652 6.792,0.524 9.887,-0.545 -0.202,-0.706 -0.385,-1.413 -0.532,-2.115 -1.353,-6.494 -0.207,-13.742 3.994,-18.793 -1.251,0.077 -2.528,-0.2 -3.636,-0.975 -2.529,-1.769 -3.448,-4.931 -3.062,-7.876 -0.249,0.076 -0.497,0.154 -0.742,0.238 -4.609,1.591 -8.451,4.86 -10.899,8.898 5.725,4.403 8.997,11.801 6.168,18.881 m -7.428,-1.571 c 0.387,0.824 0.844,1.598 1.331,2.348 1.063,0.461 2.162,0.822 3.273,1.123 0.732,-1.098 1.309,-2.299 1.694,-3.542 1.89,-6.115 -1.064,-12.045 -5.837,-15.779 -2.44,4.862 -2.926,10.607 -0.461,15.85 m -6.928,-7.785 c -0.012,1.461 0.048,2.899 0.175,4.308 0.147,0.165 0.284,0.345 0.434,0.505 1.438,1.539 3.142,2.857 4.989,3.947 -0.88,-1.815 -1.498,-3.747 -1.791,-5.734 -0.619,-4.194 0.274,-8.386 2.213,-12.068 -1.715,-1.116 -3.601,-1.952 -5.554,-2.444 -0.442,3.909 -0.437,7.895 -0.466,11.486 m 7.407,11.805 c -0.116,-0.164 -0.232,-0.327 -0.343,-0.494 -2.383,-1.147 -4.617,-2.653 -6.57,-4.442 0.258,1.571 0.633,3.086 1.131,4.535 1.93,-0.058 3.882,0.085 5.782,0.401 m 12.253,8.411 c -0.052,-0.012 -0.103,-0.018 -0.155,-0.03 -3.486,-0.824 -6.682,-2.653 -9.281,-5.118 -1.522,1.282 -3.273,2.208 -5.129,2.699 1.825,2.231 4.218,4.112 7.325,5.51 0.799,0.359 1.63,0.668 2.468,0.965 1.604,-1.328 3.186,-2.69 4.772,-4.026 m 2.236,1.971 c -0.255,-0.444 -0.554,-0.864 -0.86,-1.278 -0.507,0.397 -1.011,0.793 -1.507,1.188 -1.036,0.825 -2.09,1.714 -3.162,2.621 2.26,0.69 4.62,1.169 7.025,1.461 -0.277,-1.397 -0.784,-2.758 -1.496,-3.992 m 5.528,-1.971 c -1.558,0.34 -3.159,0.486 -4.77,0.406 1.129,1.671 1.958,3.5 2.377,5.393 0.404,-0.067 0.805,-0.149 1.205,-0.23 0.723,-1.63 1.12,-3.486 1.262,-5.473 -0.024,-0.033 -0.05,-0.064 -0.074,-0.096 m 1.761,-2.179 c 1.093,-0.373 2.175,-0.849 3.228,-1.474 3.508,-2.081 5.914,-4.919 7.297,-8.091 -3.603,1.897 -7.117,4.086 -10.486,6.403 -0.022,1.054 -0.028,2.11 -0.039,3.162 m -2.156,-1.624 c 0.178,0.335 0.354,0.668 0.544,0.99 0.004,-0.466 0.013,-0.93 0.024,-1.393 -0.189,0.135 -0.379,0.268 -0.568,0.403 m -3.408,2.51 c 0.931,0.012 1.866,-0.057 2.801,-0.204 -0.268,-0.429 -0.525,-0.864 -0.77,-1.307 -0.684,0.502 -1.362,1.005 -2.031,1.511 m -11.274,-4.228 c 1.764,1.439 3.746,2.555 5.857,3.278 -1.696,-1.363 -3.701,-2.453 -5.857,-3.278 m 3.606,-0.114 c 1.96,1.029 3.754,2.461 5.243,4.143 0.075,0.012 0.15,0.03 0.225,0.041 1.162,-0.946 2.334,-1.86 3.527,-2.711 -0.533,-1.098 -0.989,-2.226 -1.381,-3.363 -3.292,1.196 -6.858,1.349 -10.356,0.676 0.964,0.367 1.892,0.767 2.742,1.214 m 9.213,-2.561 c 0.344,1.049 0.726,2.077 1.177,3.056 0.441,-0.302 0.881,-0.605 1.326,-0.904 0.079,-1.362 0.219,-2.694 0.45,-3.984 -0.943,0.725 -1.929,1.336 -2.953,1.832 m -3.217,-31.191 c -0.149,0.025 -0.297,0.058 -0.445,0.088 -0.794,3.646 1.575,8.912 6.17,7.569 0.331,-0.096 0.621,-0.215 0.889,-0.346 0.399,-0.34 0.819,-0.661 1.257,-0.967 0.747,-0.914 0.817,-2.074 0.38,-3.159 -2.546,-1.505 -5.345,-2.578 -8.251,-3.185 m 9.458,7.186 c -0.292,0.171 -0.578,0.347 -0.851,0.534 -0.293,0.252 -0.604,0.487 -0.943,0.689 -5.981,4.828 -6.978,13.536 -4.94,21.19 1.485,-0.708 2.863,-1.653 4.084,-2.875 0.735,-2.344 1.926,-4.469 3.826,-6.25 1.217,-4.26 -0.105,-8.808 -1.176,-13.288 m -31.118,25.031 c -1.654,0.166 -3.24,0.51 -4.715,1.028 1.589,1.369 3.584,2.295 5.742,2.518 0.248,0.026 0.493,0.03 0.737,0.037 -0.706,-1.139 -1.286,-2.338 -1.764,-3.583 m 3.829,3.416 c 1.87,-0.359 3.576,-1.256 5.021,-2.498 -0.104,-0.114 -0.2,-0.234 -0.302,-0.35 -2.184,-0.503 -4.433,-0.728 -6.626,-0.682 0.526,1.24 1.152,2.424 1.907,3.53 m 29.903,-29.685 c -0.354,0.129 -0.683,0.281 -1.017,0.429 0.13,0.533 0.264,1.061 0.398,1.574 0.991,3.8 1.627,7.479 1.103,10.999 0.46,-0.304 0.945,-0.595 1.467,-0.868 1.543,-0.807 3.087,-1.302 4.606,-1.556 -0.839,-3.431 -2.655,-6.749 -5.428,-9.531 -0.364,-0.364 -0.744,-0.708 -1.129,-1.047 m 11.189,9.444 c -0.274,0.327 -0.521,0.669 -0.738,1.029 0.378,0.043 0.751,0.1 1.121,0.173 -0.12,-0.403 -0.246,-0.803 -0.383,-1.202 m 7.947,7.053 c -0.893,0.149 -1.77,0.354 -2.59,0.607 -0.792,0.245 -1.582,0.515 -2.37,0.8 -0.006,0.665 -0.042,1.328 -0.11,1.992 2.07,0.472 4.385,-0.299 6.364,-1.687 C -6.959,7.271 -7.388,6.698 -7.866,6.162 m 3.44,-0.19 C -5.04,5.925 -5.66,5.935 -6.281,5.976 c 0.274,0.34 0.534,0.691 0.782,1.051 0.381,-0.333 0.737,-0.687 1.073,-1.055 m -61.389,18.411 c 1.466,0.694 2.967,1.302 4.475,1.804 4.047,1.347 8.38,2.386 12.769,2.9 0.313,-0.243 0.622,-0.494 0.933,-0.741 -2.606,-1.014 -5.049,-2.352 -7.193,-4.11 -1.199,-0.982 -2.217,-2.062 -3.092,-3.214 -2.918,0.257 -5.951,-0.583 -8.606,-2.848 -0.199,-0.17 -0.371,-0.357 -0.557,-0.536 -0.213,0.102 -0.44,0.187 -0.646,0.298 -0.437,0.234 -0.859,0.509 -1.271,0.801 0.827,1.999 1.902,3.895 3.188,5.646 m -5.475,-3.558 c 0.102,0.184 0.197,0.371 0.302,0.553 0.703,0.499 1.43,0.968 2.176,1.412 -0.564,-0.963 -1.06,-1.961 -1.505,-2.982 -0.343,0.321 -0.667,0.661 -0.973,1.017 m 1.693,-3.663 c 0.44,-0.285 0.895,-0.546 1.365,-0.785 -1.971,-2.506 -2.8,-5.601 -2.228,-8.866 0.179,-1.023 1.749,-0.589 1.57,0.43 -0.5,2.854 0.426,5.629 2.19,7.749 1.709,-0.664 3.549,-1.079 5.452,-1.274 -0.667,-2.145 -1.072,-4.398 -1.282,-6.7 -0.527,-0.603 -1.026,-1.228 -1.489,-1.875 -1.683,-2.354 -3.056,-5.204 -4.021,-8.263 -1.756,3.482 -2.779,7.329 -2.871,11.228 -0.068,2.864 0.407,5.683 1.314,8.356 m 2.475,-21.254 c 0.982,3.232 2.526,6.304 4.43,8.968 -0.125,-3.954 0.166,-7.955 0.457,-11.67 0.054,-0.694 0.13,-1.399 0.218,-2.108 -0.44,-0.071 -0.88,-0.14 -1.319,-0.178 -1.449,1.508 -2.717,3.189 -3.786,4.988 m 13.302,-19.964 c -3.009,2.676 -4.737,6.192 -5.747,10.022 4.691,-3.044 10.311,-4.74 16.29,-4.424 0.901,0.048 1.805,0.156 2.708,0.305 1.12,-2.765 3.226,-4.745 5.613,-6.393 -6.016,-3.432 -13.111,-4.627 -18.864,0.49 m 25.362,4.391 c -0.619,2.016 -0.577,4.218 -0.247,6.402 0.564,0.39 1.111,0.802 1.645,1.226 1.502,-0.501 3.033,-0.758 4.567,-0.797 -1.46,-1.919 -3.003,-3.727 -4.535,-5.384 -0.451,-0.487 -0.932,-0.969 -1.43,-1.447 m 21.105,15.667 c -0.589,-0.084 -1.193,-0.138 -1.822,-0.135 -1.95,0.008 -3.935,0.817 -5.483,2.098 0.341,0.917 0.647,1.842 0.902,2.777 2.326,0.756 4.433,2.086 6.176,3.802 1.286,-0.18 2.583,-0.237 3.835,-0.106 0.031,-1.255 -0.003,-2.509 -0.113,-3.759 -1.034,-1.644 -2.204,-3.228 -3.495,-4.677 m -45.285,41.723 c 2.69,1.303 5.508,2.443 8.412,3.339 0.749,-0.179 1.488,-0.461 2.189,-0.882 2.191,-1.316 3.541,-3.272 4.189,-5.459 -4.704,2.765 -10.661,2.464 -15.824,0.674 0.018,0.042 0.046,0.073 0.059,0.122 0.206,0.811 0.547,1.544 0.975,2.206 m -5.484,-3.021 c 0.491,-0.169 0.973,-0.352 1.435,-0.557 -0.353,-0.174 -0.703,-0.35 -1.042,-0.536 -3.491,-1.907 -6.571,-4.581 -9.011,-7.739 -0.679,-0.33 -1.344,-0.68 -1.997,-1.045 2.727,3.74 6.165,7.041 10.242,9.657 0.12,0.077 0.252,0.144 0.373,0.22 M -72.12,19.239 c 0.361,-0.382 0.748,-0.731 1.147,-1.064 -0.405,-1.123 -0.758,-2.263 -1.006,-3.431 -1.466,-6.908 -0.033,-13.709 3.33,-19.345 -0.315,-1.292 -0.56,-2.607 -0.72,-3.928 -2.055,0.554 -3.959,1.475 -5.589,2.727 -2.11,8.46 -0.971,17.331 2.838,25.041 m 16.622,-48.254 c -3.579,1.643 -6.887,3.828 -9.742,6.514 -2.399,3.559 -3.284,7.771 -3.029,12.057 1.472,-0.241 2.973,-0.32 4.467,-0.237 0.779,-0.745 1.598,-1.448 2.456,-2.103 1.703,-7.65 5.809,-14.925 14.398,-16.102 -2.963,-0.294 -5.817,-0.561 -8.55,-0.129 m 22.161,-1.837 c -2.03,1.466 -4.468,2.1 -6.94,2.274 2.474,0.563 4.798,1.598 6.966,2.958 0.705,-0.434 1.414,-0.856 2.12,-1.265 1.546,-0.898 3.32,-1.935 4.786,-3.221 -0.244,-0.098 -0.476,-0.218 -0.723,-0.31 -1.656,-0.615 -3.359,-1.068 -5.082,-1.418 -0.338,0.346 -0.706,0.678 -1.127,0.982 m 13.84,4.51 c -2.453,0.172 -4.823,1.092 -6.705,2.941 -0.674,0.664 -1.188,1.384 -1.592,2.14 2.485,2.375 4.707,5.046 6.653,7.659 0.202,0.271 0.397,0.552 0.596,0.828 5.319,0.475 10.472,3.365 14.135,7.286 0.532,0.132 1.057,0.297 1.574,0.499 -2.183,-8.506 -7.465,-16.273 -14.661,-21.353 m 18.086,25.034 c -0.369,-0.301 -0.749,-0.585 -1.145,-0.844 0.116,0.694 0.206,1.391 0.281,2.089 0.175,0.281 0.353,0.558 0.522,0.844 0.156,-0.676 0.263,-1.377 0.342,-2.089 M 5.956,29.82 c -2.482,4.197 -7.113,7.175 -11.847,7.236 -1.998,1.311 -4.259,2.259 -6.748,2.695 -0.096,0.017 -0.18,0.005 -0.265,-0.006 -0.851,0.764 -1.781,1.458 -2.787,2.056 -8.457,5.027 -19.363,3.678 -28.668,0.795 -3.57,0.655 -7.349,-0.616 -9.468,-3.681 -1.503,-0.729 -2.976,-1.524 -4.406,-2.39 -2.3,0.761 -4.725,1.094 -7.311,0.74 -8.015,-1.095 -12.33,-9.058 -8.224,-15.856 -7.015,-5.838 -11.171,-16.712 -5.755,-24.958 0.915,-1.395 2.042,-2.577 3.313,-3.56 0.096,-0.347 0.16,-0.702 0.265,-1.046 1.703,-5.547 4.723,-10.401 8.614,-14.373 2.135,-4.158 5.875,-7.311 11.667,-8.334 0.204,-0.036 0.408,-0.042 0.612,-0.069 6.891,-2.991 14.659,-4.052 22.253,-2.689 1.837,-2.513 1.054,-5.748 -0.044,-8.589 -1.079,-2.793 -2.876,-6.469 -1.389,-9.474 1.212,-2.449 4.261,-3.662 6.655,-4.585 0.121,-0.046 0.234,-0.063 0.336,-0.056 1.155,-0.488 2.367,-0.865 3.495,-1.178 3.811,-1.056 7.04,-2.18 9.218,-5.692 1.794,-2.893 2.218,-6.189 1.372,-9.451 -0.261,-1.008 1.309,-1.438 1.57,-0.429 1.639,6.318 -1.338,13.172 -7.459,15.856 -2.534,1.111 -5.434,1.208 -7.921,2.435 -3.849,1.898 -4.551,5.372 -1.948,8.528 1.997,2.421 4.857,4.152 6.306,7.015 1.75,3.455 0.846,6.217 -1.145,8.522 1.652,0.795 3.236,1.72 4.745,2.755 3.419,-0.061 6.942,1.123 9.731,3.218 6.508,4.891 10.043,14.697 9.474,22.918 1.828,1.639 3.359,3.619 4.42,5.645 4.004,7.641 5.935,18.228 1.339,26.002"
             style="fill:#4e2447;fill-opacity:1;fill-rule:nonzero;stroke:none"
             id="path354" /></g></g></g></g></svg>
